<?xml version="1.0" encoding="UTF-8"?>
<svg version="1.1" xmlns="http://www.w3.org/2000/svg" width="375" height="375">
<path d="M0 0 C3.68288486 2.47102066 6.33113729 5.41211626 9.0625 8.875 C9.84882813 9.83535156 10.63515625 10.79570313 11.4453125 11.78515625 C13.24606966 14.01416772 14.94289834 16.29596632 16.6171875 18.62109375 C23.22263517 27.45364765 28.85284904 30.69336652 39.390625 33.58984375 C50.86417381 36.8297462 61.15052077 44.22456013 70 52 C70.80566406 52.66257813 71.61132812 53.32515625 72.44140625 54.0078125 C90.84343281 69.61641719 103.42530691 92.01248402 107.3737793 115.75634766 C109.06905027 125.87514365 111.60772752 131.5967922 119 139 C121.12099222 141.36376468 123.18608709 143.77387911 125.25 146.1875 C125.76530273 146.78240234 126.28060547 147.37730469 126.81152344 147.99023438 C130.3429513 152.10295779 133.34474695 156.25847669 136 161 C129.46691935 167.09982225 122.86865916 173.01696438 115.90625 178.62890625 C111.9924118 181.82205113 108.16639157 185.11224705 104.34350586 188.41333008 C101.43119917 190.92569751 98.50742581 193.4180789 95.53515625 195.859375 C88.75331311 201.44736282 82.76684974 207.35534462 77 214 C69.33599148 222.5440095 60.11282117 228.50286221 50.375 234.4375 C45.31042956 237.61570145 41.08826893 241.38333017 36.73828125 245.46875 C34.12786855 247.88179912 31.45168578 250.14098748 28.6875 252.375 C24.38273844 255.8557072 20.14152968 259.39897485 15.9375 263 C15.34630371 263.50547363 14.75510742 264.01094727 14.14599609 264.53173828 C9.65165877 268.39380661 5.2893827 272.37611455 0.98828125 276.453125 C-1 278 -1 278 -4 278 C-6.09375 276.34765625 -6.09375 276.34765625 -8.5 274.0625 C-11.97914525 270.83437533 -15.49160373 267.72771015 -19.1875 264.75 C-23.6621518 261.1273623 -28.03377674 257.40506769 -32.375 253.625 C-41.89607216 245.34142739 -51.50083473 237.18818916 -61.3125 229.25 C-67.45437042 224.28009946 -73.46518016 219.21782246 -79.30859375 213.8984375 C-84.40577843 209.27041647 -89.60647627 204.83957351 -94.95703125 200.5078125 C-98.48090358 197.60367125 -101.93153738 194.62362177 -105.375 191.625 C-111.65643007 186.15563905 -117.98852934 180.75205834 -124.35888672 175.38671875 C-126.12010821 173.89851017 -127.87499736 172.40306823 -129.62890625 170.90625 C-130.22429199 170.39916504 -130.81967773 169.89208008 -131.43310547 169.36962891 C-132.5779716 168.39427816 -133.72158639 167.41745614 -134.86376953 166.43896484 C-137.75402466 163.96059835 -137.75402466 163.96059835 -141 162 C-140.50457926 157.50126006 -138.96566369 155.43007767 -135.875 152.1875 C-135.05386719 151.30964844 -134.23273438 150.43179688 -133.38671875 149.52734375 C-132.59910156 148.69332031 -131.81148437 147.85929688 -131 147 C-129.88774734 145.75718946 -128.78290397 144.50768604 -127.6875 143.25 C-127.14222656 142.62480469 -126.59695312 141.99960938 -126.03515625 141.35546875 C-122.6764232 137.46810593 -119.33598722 133.5650306 -115.9987793 129.65917969 C-112.10322922 125.10322922 -112.10322922 125.10322922 -111 124 C-110.70567694 122.69334729 -110.46072256 121.37547788 -110.23828125 120.0546875 C-104.93608362 90.21448043 -89.92247844 63.88973745 -65 46 C-54.64426411 39.01186354 -43.45747873 32.78941148 -31.25 29.8125 C-24.87313145 27.79315829 -21.07321932 22.00040426 -17 17 C-15.78376953 15.51886719 -15.78376953 15.51886719 -14.54296875 14.0078125 C-13.0524995 12.1836561 -11.57198746 10.3512788 -10.10546875 8.5078125 C-4.11391492 1.37130497 -4.11391492 1.37130497 0 0 Z M-29.88671875 38.62890625 C-33.62643922 42.82485879 -37.2989138 47.07125155 -40.9140625 51.375 C-43.74810687 54.7338674 -46.6917442 57.97300647 -49.6875 61.1875 C-53.07584922 64.83354115 -56.31901525 68.55622042 -59.4375 72.4375 C-63.28110057 77.21621628 -67.36960164 81.69157687 -71.55834961 86.16381836 C-75.45872738 90.3519645 -79.07124701 94.71859655 -82.65234375 99.18359375 C-84.86010998 101.83217853 -87.14083566 104.36673508 -89.49511719 106.88378906 C-90.53906907 108.0018908 -91.57494582 109.12758768 -92.60253906 110.26074219 C-94.83571778 112.72200251 -97.00832528 115.00709758 -99.54296875 117.16796875 C-104.72433475 122.05587685 -105.50113501 126.68242735 -105.79174805 133.55200195 C-105.9821826 163.47263085 -95.52563741 188.50932358 -75 210 C-74.40058594 210.67417969 -73.80117187 211.34835937 -73.18359375 212.04296875 C-55.53337883 231.14179742 -28.32608543 239.90930314 -3 241 C19.35531107 241.4350804 42.3820102 235.30422361 59 220 C60.89068988 218.35332003 62.79310139 216.72083484 64.69628906 215.08862305 C66.65826473 213.40015968 68.60542493 211.69584402 70.55078125 209.98828125 C72.47620549 208.3042473 74.40323666 206.68405528 76.41796875 205.10546875 C89.71304389 194.62332368 96.83885765 175.80433872 101 160 C101.3403125 158.75089844 101.3403125 158.75089844 101.6875 157.4765625 C102.33059269 154.64516828 102.69510944 151.88968497 103 149 C103.13390137 147.86183838 103.13390137 147.86183838 103.27050781 146.70068359 C104.64193662 134.80679017 104.64193662 134.80679017 100.63671875 123.91796875 C98.16726785 120.87455945 95.40962789 118.16201222 92.546875 115.49072266 C90.32808711 113.35247789 88.46283142 110.98400441 86.5625 108.5625 C82.41939009 103.45692535 78.1176955 98.50199947 73.79711914 93.54711914 C69.89578359 89.06249149 66.11514838 84.4951833 62.375 79.875 C59.47504125 76.36452361 56.49241862 72.93167273 53.5 69.5 C49.76595557 65.21783896 46.07541354 60.91668732 42.5 56.5 C38.78018874 51.91592033 34.97471315 47.41252567 31.125 42.9375 C30.56490234 42.28136719 30.00480469 41.62523437 29.42773438 40.94921875 C28.63206055 40.02882813 28.63206055 40.02882813 27.8203125 39.08984375 C27.34867676 38.54191162 26.87704102 37.99397949 26.39111328 37.42944336 C20.27732209 31.14719566 10.07491179 31.88777826 1.90014648 31.76049805 C-15.32442897 30.99280045 -15.32442897 30.99280045 -29.88671875 38.62890625 Z M33 38 C36.88909849 43.45998925 41.14163143 48.43574207 45.66015625 53.3828125 C47.93628354 55.92873117 50.10294711 58.5322456 52.25 61.1875 C55.90846134 65.70940939 59.67692716 70.11778899 63.5 74.5 C67.97427453 79.63078384 72.33821575 84.82862389 76.62109375 90.12109375 C80.08469223 94.31267351 83.66959163 98.39608009 87.24707031 102.49047852 C91.17696425 107.00449866 94.94551916 111.60608043 98.609375 116.33984375 C99.29773438 117.16162109 99.29773438 117.16162109 100 118 C100.33 118 100.66 118 101 118 C100.04229974 99.80369497 90.85704337 82.46362749 79 69 C77.98679687 67.77216797 77.98679687 67.77216797 76.953125 66.51953125 C65.9023102 53.51264156 49.86002911 41.72940736 33 38 Z M-47.5 42.5 C-48.21687988 42.8616626 -48.93375977 43.2233252 -49.67236328 43.59594727 C-75.77205733 57.09024348 -92.97655784 79.9893003 -101.875 107.5625 C-102.8973275 110.83932869 -103.12174297 111.63477109 -102 115 C-98.71022193 111.27004036 -95.44096989 107.52347104 -92.21484375 103.73828125 C-86.64818135 97.20726494 -81.01893766 90.76265538 -75.22265625 84.43359375 C-71.13950243 79.962935 -67.18157621 75.38858111 -63.25390625 70.78125 C-56.95801711 63.39989784 -50.54953074 56.1582651 -44 49 C-42.61875006 47.48484073 -41.24306309 45.96457643 -39.875 44.4375 C-39.31554687 43.81746094 -38.75609375 43.19742188 -38.1796875 42.55859375 C-36.79882955 41.0599996 -36.79882955 41.0599996 -37 39 C-41.04386994 39 -43.9676302 40.71743499 -47.5 42.5 Z " fill="#010101" transform="translate(190,48)"/>
<path d="M0 0 C0.66 0.66 1.32 1.32 2 2 C1.49891598 7.88773727 -1.77252612 11.16774905 -6 15 C-14.99084991 21.59648242 -26.40102744 28.4807199 -38 27 C-38.99 26.34 -39.98 25.68 -41 25 C-41.70871235 21.10208205 -41.26324212 19.41241265 -39.125 16.0625 C-30.00888492 6.28060124 -13.64552214 -3.27492531 0 0 Z " fill="#010101" transform="translate(251,153)"/>
<path d="M0 0 C0.33 0.66 0.66 1.32 1 2 C2.65512951 2.69481546 4.32384752 3.35755539 6 4 C12.23833876 7.46084518 18.28632614 11.7817554 22 18 C21.9375 21.5 21.9375 21.5 21 24 C9.61268742 26.27746252 0.41911483 21.84261055 -9.22265625 15.92578125 C-14.41079183 12.32838203 -19.12406215 8.78239082 -21.0625 2.625 C-21 0 -21 0 -20 -2 C-13.6769768 -4.1076744 -6.15049679 -2.22464777 0 0 Z " fill="#010101" transform="translate(143,155)"/>
<path d="M0 0 C0.99 0.33 1.98 0.66 3 1 C3.66796875 3.1875 3.66796875 3.1875 4.1875 6 C6.04868416 13.37758052 9.84158233 18.41409321 16.32421875 22.4453125 C23.35243267 25.68213888 31.08130555 26.40856947 38.55078125 24.26953125 C45.78118205 21.29230739 50.95125999 17.27857779 54.25390625 10.0703125 C55.34763256 7.03536515 55.73246793 4.2103848 56 1 C56.99 0.67 57.98 0.34 59 0 C59.14695313 0.61746094 59.29390625 1.23492187 59.4453125 1.87109375 C61.47977298 9.5529359 64.00557166 16.09114453 70.6015625 20.89453125 C77.93622419 25.02632616 84.67059764 26.3707936 93 25 C100.29634463 22.76829682 105.97249674 18.49994277 110 12 C111.31062581 8.71875468 112.25728196 5.45187049 113 2 C113.99 2 114.98 2 116 2 C115.70563837 9.94776394 112.82418 16.23889926 107.10546875 21.86328125 C98.74643405 28.50764217 90.60014361 30.12251822 80 29 C71.56927701 27.00793043 64.99657216 22.21392959 60 15.1875 C59 13 59 13 59 11 C58.34 11 57.68 11 57 11 C56.7215625 11.99 56.7215625 11.99 56.4375 13 C52.94666354 20.28522391 47.57056328 25.23713464 40 28 C31.8403571 30.54237295 22.81528467 29.76493097 15.14453125 26.18359375 C7.5328776 21.98262644 2.73172868 15.19518605 0 7 C-0.03954234 4.66700175 -0.04401732 2.33291811 0 0 Z " fill="#040404" transform="translate(132,214)"/>
<path d="M0 0 C3.96 0 7.92 0 12 0 C13.35304209 4.05912626 12.15216503 5.77149591 10.5625 9.6875 C10.08941406 10.86699219 9.61632812 12.04648438 9.12890625 13.26171875 C8.75636719 14.16535156 8.38382813 15.06898438 8 16 C6.68 16 5.36 16 4 16 C3.13444052 13.90049414 2.28288723 11.7952093 1.4375 9.6875 C0.72400391 7.92986328 0.72400391 7.92986328 -0.00390625 6.13671875 C-1 3 -1 3 0 0 Z " fill="#010101" transform="translate(183,190)"/>
<path d="M0 0 C3 1 3 1 3 1 Z " fill="#000000" transform="translate(161,244)"/>
<path d="M0 0 C0.99 0.495 0.99 0.495 2 1 C1.01 1.495 1.01 1.495 0 2 C0 1.34 0 0.68 0 0 Z " fill="#000000" transform="translate(189,227)"/>
<path d="" fill="#000000" transform="translate(0,0)"/>
<path d="M0 0 C2 1 2 1 2 1 Z " fill="#000000" transform="translate(175,286)"/>
<path d="M0 0 C2 1 2 1 2 1 Z " fill="#000000" transform="translate(165,238)"/>
<path d="" fill="#000000" transform="translate(0,0)"/>
<path d="" fill="#000000" transform="translate(0,0)"/>
<path d="" fill="#000000" transform="translate(0,0)"/>
<path d="" fill="#000000" transform="translate(0,0)"/>
<path d="" fill="#000000" transform="translate(0,0)"/>
<path d="" fill="#000000" transform="translate(0,0)"/>
<path d="" fill="#000000" transform="translate(0,0)"/>
<path d="" fill="#000000" transform="translate(0,0)"/>
<path d="" fill="#000000" transform="translate(0,0)"/>
<path d="" fill="#000000" transform="translate(0,0)"/>
<path d="" fill="#000000" transform="translate(0,0)"/>
<path d="M0 0 C2 1 2 1 2 1 Z " fill="#000000" transform="translate(237,152)"/>
<path d="M0 0 C2 1 2 1 2 1 Z " fill="#000000" transform="translate(241,151)"/>
<path d="M0 0 C2 1 2 1 2 1 Z " fill="#000000" transform="translate(216,76)"/>
<path d="M0 0 C2 1 2 1 2 1 Z " fill="#000000" transform="translate(160,76)"/>
<path d="" fill="#000000" transform="translate(0,0)"/>
<path d="" fill="#000000" transform="translate(0,0)"/>
<path d="" fill="#000000" transform="translate(0,0)"/>
<path d="" fill="#000000" transform="translate(0,0)"/>
<path d="" fill="#000000" transform="translate(0,0)"/>
<path d="" fill="#000000" transform="translate(0,0)"/>
<path d="" fill="#000000" transform="translate(0,0)"/>
<path d="" fill="#000000" transform="translate(0,0)"/>
<path d="" fill="#000000" transform="translate(0,0)"/>
<path d="" fill="#000000" transform="translate(0,0)"/>
<path d="" fill="#000000" transform="translate(0,0)"/>
<path d="" fill="#000000" transform="translate(0,0)"/>
<path d="" fill="#000000" transform="translate(0,0)"/>
<path d="" fill="#000000" transform="translate(0,0)"/>
<path d="" fill="#000000" transform="translate(0,0)"/>
<path d="" fill="#000000" transform="translate(0,0)"/>
<path d="" fill="#000000" transform="translate(0,0)"/>
<path d="" fill="#000000" transform="translate(0,0)"/>
<path d="" fill="#000000" transform="translate(0,0)"/>
<path d="" fill="#000000" transform="translate(0,0)"/>
<path d="" fill="#000000" transform="translate(0,0)"/>
<path d="" fill="#000000" transform="translate(0,0)"/>
<path d="" fill="#000000" transform="translate(0,0)"/>
<path d="" fill="#000000" transform="translate(0,0)"/>
<path d="" fill="#000000" transform="translate(0,0)"/>
<path d="" fill="#000000" transform="translate(0,0)"/>
<path d="" fill="#000000" transform="translate(0,0)"/>
<path d="" fill="#000000" transform="translate(0,0)"/>
<path d="" fill="#000000" transform="translate(0,0)"/>
<path d="" fill="#000000" transform="translate(0,0)"/>
<path d="" fill="#000000" transform="translate(0,0)"/>
<path d="" fill="#000000" transform="translate(0,0)"/>
<path d="" fill="#000000" transform="translate(0,0)"/>
<path d="" fill="#000000" transform="translate(0,0)"/>
<path d="" fill="#000000" transform="translate(0,0)"/>
<path d="" fill="#000000" transform="translate(0,0)"/>
<path d="" fill="#000000" transform="translate(0,0)"/>
<path d="" fill="#000000" transform="translate(0,0)"/>
<path d="" fill="#000000" transform="translate(0,0)"/>
<path d="" fill="#000000" transform="translate(0,0)"/>
<path d="" fill="#000000" transform="translate(0,0)"/>
<path d="" fill="#000000" transform="translate(0,0)"/>
<path d="" fill="#000000" transform="translate(0,0)"/>
<path d="" fill="#000000" transform="translate(0,0)"/>
<path d="" fill="#000000" transform="translate(0,0)"/>
<path d="" fill="#000000" transform="translate(0,0)"/>
<path d="" fill="#000000" transform="translate(0,0)"/>
<path d="" fill="#000000" transform="translate(0,0)"/>
<path d="" fill="#000000" transform="translate(0,0)"/>
<path d="" fill="#000000" transform="translate(0,0)"/>
<path d="" fill="#000000" transform="translate(0,0)"/>
<path d="" fill="#000000" transform="translate(0,0)"/>
<path d="" fill="#000000" transform="translate(0,0)"/>
<path d="" fill="#000000" transform="translate(0,0)"/>
<path d="" fill="#000000" transform="translate(0,0)"/>
<path d="" fill="#000000" transform="translate(0,0)"/>
<path d="" fill="#000000" transform="translate(0,0)"/>
<path d="" fill="#000000" transform="translate(0,0)"/>
<path d="" fill="#000000" transform="translate(0,0)"/>
<path d="" fill="#000000" transform="translate(0,0)"/>
<path d="" fill="#000000" transform="translate(0,0)"/>
<path d="" fill="#000000" transform="translate(0,0)"/>
<path d="" fill="#000000" transform="translate(0,0)"/>
<path d="" fill="#000000" transform="translate(0,0)"/>
<path d="" fill="#000000" transform="translate(0,0)"/>
<path d="" fill="#000000" transform="translate(0,0)"/>
<path d="" fill="#000000" transform="translate(0,0)"/>
<path d="" fill="#000000" transform="translate(0,0)"/>
<path d="" fill="#000000" transform="translate(0,0)"/>
<path d="" fill="#000000" transform="translate(0,0)"/>
<path d="" fill="#000000" transform="translate(0,0)"/>
<path d="" fill="#000000" transform="translate(0,0)"/>
<path d="" fill="#000000" transform="translate(0,0)"/>
<path d="" fill="#000000" transform="translate(0,0)"/>
<path d="" fill="#000000" transform="translate(0,0)"/>
<path d="" fill="#000000" transform="translate(0,0)"/>
<path d="" fill="#000000" transform="translate(0,0)"/>
<path d="" fill="#000000" transform="translate(0,0)"/>
<path d="" fill="#000000" transform="translate(0,0)"/>
<path d="" fill="#000000" transform="translate(0,0)"/>
<path d="" fill="#000000" transform="translate(0,0)"/>
<path d="" fill="#000000" transform="translate(0,0)"/>
<path d="" fill="#000000" transform="translate(0,0)"/>
</svg>
